<?xml version="1.0" encoding="utf-8"?><svg id="Layer_1" data-name="Layer 1" xmlns="http://www.w3.org/2000/svg" xmlns:xlink="http://www.w3.org/1999/xlink" viewBox="0 0 140 60"><defs><mask id="mask" x="56.23" y="12.92" width="59.47" height="37.36" maskUnits="userSpaceOnUse"><g id="b"><path id="a" d="M56.23,12.92H115.7V50.28H56.23Z" fill="#fff" fill-rule="evenodd"/></g></mask></defs><title>Disney</title><path d="M100.91,27.83a39.4,39.4,0,0,1-4.39.34c-.63.07-1,1.89.13,1.75,0,0,4.24-.86,2.89,2-.33.56-3,.28-4.51.53-.38.1-1.18,2.49-.18,2.52s5.12-1.79,5.42.51c.08,1.84-5.45,4.72-8,3.2a3.75,3.75,0,0,1-1.48-3.18c-.12-1.52,1.3-2.54.73-4.12a.85.85,0,0,1,.5-1.12c.7-.16,1.13-1.31,1.37-2.12-3.73-2.13-1.37-2.59-1.37-2.59,2.31-.31,6.53-1.71,8.17-.76,2.78,1.76,1.65,2.86.67,3" fill="#fff" fill-rule="evenodd"/><g mask="url(#mask)"><path d="M65.85,16.28c.92-.25,3.11,0,1.39,2.1s-4.82,2.27-5.39,2.23-.65-.12-.57-.53S64,16.79,65.85,16.28Zm-4.8-.15c.27,0-2.33,3.05-2.49,2.63C58.12,17.57,60.31,16.19,61.05,16.13Zm8.84.19c-.11-.7-.62-1.65-1.29-1.71-1.18,0-1.83-1.24-2.92-1.5-5-1.14-8.19,3.18-8.46,3.51a3.22,3.22,0,0,0-.58,3.84c.72.76.49,1.67.81,2.59.23.49,1,1.64,2,0,1.49.06,2.94.38,4.39-.14S70.15,19.94,69.89,16.32Zm42.49,17a5.42,5.42,0,0,1-1.6,1.36,4.6,4.6,0,0,1-2.45.7c-.73-.19.69-1.33,1-2,1.13-1.48,2-3.18,3.59-4.36.4-.1.49.37.62.58a5,5,0,0,1-.79,3.31Zm2.31-6.18a2.18,2.18,0,0,0-2.61-.9c-2.56,1.4-4.35,3.86-6.63,6.2s.37-3.28,1.38-5c2.11-3.55-.36-2.73-.92-1.78-2.23,3-5.29,6.83-3.06,10.84-1.29,3-3.62,10.47-2.15,12.48.61.79,2.27,2.05,2.46.73a43.05,43.05,0,0,1,3.08-10.46c5.3.07,12-5.18,8.44-12.12Z" fill="#fff" fill-rule="evenodd"/></g><path d="M88.49,35.63a1.66,1.66,0,0,1-2.65,0c-2.13-1.7-3.94-8.07-4.38-5.26-.33,2.13.23,4.25-.6,6.16-.27.49-2.29,1.46-2.58-2.59,0-2.93,1.26-10.56,3.37-8.85,2.43,1.91,2.84,4,4.71,6.22,1.91,2.58-.49-5.64-1.09-8.57-.26-2.88,3,.63,3.69,2.95,1.07,2.84,2.19,7.43-.47,9.91" fill="#fff" fill-rule="evenodd"/><path d="M75.51,26.54c-10.07.54-8.74,1.61-6.67,1.7,12.59-.16,9.23,6.22,8.1,7.1-5.48,3.88-11.57.11-11.73-1.87-.22-3.64,5.23-2.85,7.28-2.36,2.77.8,2.28,1.71-.26,2.08-1.86.24-6.3-2.15-5.63.24.46,1.34,11.43.29,8.43-2.07-1.49-1.14-7.69-1-9.74-1.72-2-1-.57-3.95,1.84-4.77,3.22-1.09,7.21-1.63,10.46-.36,1.37.51.7,1.89-2.08,2" fill="#fff" fill-rule="evenodd"/><path d="M62.48,37.72c-.74.4-3,1.28-2.88-2.85,0-3.16-.09-6.68.78-9.84.15-.49,1.68-.88,2.09,1.34.21,3.6.76,11,0,11.35M33.35,35.18c.08-2.28.15-7.13.15-7.13-2.5-.08-8.72.87-7.71,2.42S30.34,34.86,33.35,35.18Zm-7.88-4C21.78,26.27,34,24.4,34,24.4c.38-2.07.31-5.63,1.27-6.67a.67.67,0,0,1,.81,0C37.84,19.28,37.55,22,37.76,24c1.39.08,2.57.14,4.21.27,3,.23,7.2,1.35,7.6,4.56,0,3.53-4.56,3.05-4.36,2.24s2.28-1.44,1-2.16-8.52-1.71-8.55-1.11c0,1.06,0,5.33.1,7.94,0,.66,12.1,2.26,16-3.46,5.13-8.27-10.49-16.82-18-19.13a32.78,32.78,0,0,0-14.18-1.05c-1.34.26,1.56.91.42,1.47a2.66,2.66,0,0,1-2.8-.21c-.58-.62.16-2.09,1.32-2.79,7.56-3.46,18.16.13,24,2.76S57.28,21.75,58.62,28c.44,3.64-1.45,6.8-4.53,8.85-4.58,3-10.75,3.18-16.21,2.24-.73,2.41-2.63,2-3.16,1.38a5,5,0,0,1-1-2.84c-.05-.32-.3-.39-.66-.61C31.16,35.88,27.18,33.49,25.47,31.17Z" fill="#fff" fill-rule="evenodd"/></svg>