<?xml version="1.0" encoding="utf-8"?><svg id="Layer_1" data-name="Layer 1" xmlns="http://www.w3.org/2000/svg" viewBox="0 0 140 60"><title>Marvel</title><g id="White_Marvel_Block" data-name="White Marvel Block"><path d="M71.48,24.66c0,2.66-1.18,4.34-2.56,5a3.23,3.23,0,0,1-1.4.33V19.44h0C68,19.44,71.48,19.58,71.48,24.66ZM51.68,36.15H55l-1.69-14Zm66.89-25.7v39.1H21.43V10.45Zm-14.94,3.13H87l-2.74,20-2.71-20h-6l.67,5.34a9.48,9.48,0,0,0-8.56-5.34h-6l0,29.14L57.23,13.58H49.36L44.83,43.77V13.58H37.31l-2.72,17L32,13.58H24.42V46.4h5.93V30.58l2.7,15.82H36.2l2.66-15.82V46.4H50.29l.69-5h4.61l.69,5H67.52V35.75l1.38-.2,2.85,10.86h5.82L73.83,33.68a9.53,9.53,0,0,0,3.46-8.37h0s3.53,21.12,3.53,21.12l6.9,0,4.72-29.76V46.41h11.2V40.5H98.32V33h5.32V27H98.32V19.57h5.32v-6Zm12,26.92h-5V13.57h-5.88V46.4h10.92Z" fill="#fff"/></g></svg>