<?xml version="1.0" encoding="utf-8"?><svg id="Layer_1" data-name="Layer 1" xmlns="http://www.w3.org/2000/svg" viewBox="0 0 140 60"><title>National Geographic</title><g id="Page-1"><g id="Natgeologo"><path id="Shape" d="M8.57,48.64V11.36h26V48.64Zm22.25-3.77V15.11H12.32V44.89Z" fill="#fff"/><g id="Group"><path id="Path" d="M51.87,28.11H50.29c-2.11-3-4.21-5.94-6.31-9.31h0v9.31H42.13v-13h1.62c2.1,3,4.21,5.91,6.28,9.26h0V15.1h1.82v13Z" fill="#fff" fill-rule="evenodd"/><path d="M56.09,23c.51-1.71,1-3.29,1.5-5.29h0c.52,2,.94,3.58,1.46,5.29Zm.84-7.85-4.48,13h1.89l1.12-3.54h3.91l1.06,3.54h2.48l-4.13-13H56.93Z" fill="#fff"/><polygon points="65.02 28.08 65.02 16.85 61.61 16.85 61.61 15.11 70.63 15.11 70.63 16.85 67.22 16.85 67.22 28.08 65 28.08 65.02 28.08" fill="#fff" fill-rule="evenodd"/><polygon points="71.39 28.08 71.39 15.11 73.59 15.11 73.59 28.08 71.39 28.08" fill="#fff" fill-rule="evenodd"/><path d="M80.44,26.42c-2.31,0-3.14-2.55-3.14-5s1-4.67,3.14-4.67,3.13,2.28,3.13,4.67S82.76,26.42,80.44,26.42Zm0,1.82c3.4,0,5.5-3,5.5-6.89,0-3.63-2.34-6.53-5.5-6.53S75,17.73,75,21.35c0,3.93,2.1,7,5.49,7Z" fill="#fff"/><path d="M97,28.11H95.39c-2.11-3-4.21-5.94-6.3-9.31h0v9.31H87.27v-13h1.61c2.11,3,4.21,5.91,6.28,9.26h0V15.1H97v13Z" fill="#fff" fill-rule="evenodd"/><path d="M101.26,23c.52-1.71,1-3.29,1.5-5.29h0c.52,2,.95,3.58,1.47,5.29Zm.86-7.85-4.5,13h1.89l1.12-3.54h3.92l1,3.54h2.49l-4.14-13h-1.89Z" fill="#fff"/><polygon points="108.73 15.11 110.94 15.11 110.94 26.34 115.33 26.34 115.33 28.08 108.73 28.08 108.73 15.11" fill="#fff" fill-rule="evenodd"/></g><path d="M50.5,38.94v5.35a10.4,10.4,0,0,1-3.69.8c-3.83,0-6.23-3-6.23-6.78,0-3.53,2.4-6.61,6.29-6.61a5.63,5.63,0,0,1,3.15,1l-.67,1.51A4.75,4.75,0,0,0,47,33.53c-2.37,0-4,1.89-4,4.81s1.82,4.89,3.78,4.89a3.23,3.23,0,0,0,1.56-.31v-4Z" fill="#fff" fill-rule="evenodd"/><polygon points="58.45 33.63 54.73 33.63 54.73 37.19 58.38 37.19 58.38 38.94 54.73 38.94 54.73 43.13 59.12 43.13 59.12 44.88 52.51 44.88 52.51 31.88 58.44 31.88 58.44 33.63 58.45 33.63" fill="#fff" fill-rule="evenodd"/><path d="M65.31,43.22c-2.32,0-3.14-2.55-3.14-5s.95-4.67,3.14-4.67,3.13,2.28,3.13,4.67S67.62,43.22,65.31,43.22Zm0,1.82c3.39,0,5.49-3,5.49-6.89,0-3.64-2.33-6.54-5.49-6.54s-5.51,2.9-5.51,6.54c0,3.9,2.11,6.92,5.51,6.92h0Z" fill="#fff"/><path d="M81.49,38.94v5.35a10.44,10.44,0,0,1-3.69.8c-3.78,0-6.23-3-6.23-6.78,0-3.53,2.4-6.61,6.3-6.61a5.58,5.58,0,0,1,3.14,1l-.71,1.54a4.76,4.76,0,0,0-2.38-.68c-2.37,0-4,1.89-4,4.81s1.84,4.85,3.72,4.85a3.34,3.34,0,0,0,1.56-.32v-4Z" fill="#fff" fill-rule="evenodd"/><path d="M85.75,33.63h1a1.89,1.89,0,0,1,2,1.69,2.81,2.81,0,0,1,0,.41,2.28,2.28,0,0,1-2,2.56h-.14l-.94.05V33.62Zm5.67,11.24L88.84,39.5a4.38,4.38,0,0,0,2.22-3.84c0-2.52-1.53-3.77-4-3.77H83.58v13h2.23V40h1l2.09,4.89h2.52Z" fill="#fff"/><path d="M95.05,39.74c.52-1.71,1-3.28,1.5-5.28h0c.52,2,1,3.56,1.46,5.28Zm.86-7.85-4.48,13h1.88l1.17-3.53h4l.94,3.53h2.49l-4.1-13H95.91Z" fill="#fff"/><path d="M106.09,31.89h-3.47v13h2.23V40h1a4.25,4.25,0,0,0,4.27-4.21h0v-.11C110.08,33.11,108.55,31.89,106.09,31.89Zm-.32,6.41-.94.05V33.63h1a1.89,1.89,0,0,1,2,1.7,2.54,2.54,0,0,1,0,.39A2.29,2.29,0,0,1,106,38.3h-.21Z" fill="#fff"/><polygon points="120.39 44.87 118.17 44.87 118.17 38.62 113.54 38.62 113.54 44.87 111.33 44.87 111.33 31.88 113.54 31.88 113.54 36.86 118.17 36.86 118.17 31.92 120.39 31.92 120.39 44.86 120.39 44.87" fill="#fff" fill-rule="evenodd"/><polygon points="122.52 44.87 122.52 31.88 124.73 31.88 124.73 44.86 122.52 44.86 122.52 44.87" fill="#fff" fill-rule="evenodd"/><path d="M134.72,34.25a4.57,4.57,0,0,0-2.27-.72c-2.27,0-3.91,1.89-3.91,4.81s1.81,4.88,4,4.88a4.22,4.22,0,0,0,2.21-.65l.62,1.62a5.65,5.65,0,0,1-2.93.94c-3.82,0-6.23-3-6.23-6.79,0-3.53,2.39-6.6,6.27-6.6a5.51,5.51,0,0,1,3,1Z" fill="#fff" fill-rule="evenodd"/></g></g></svg>