<?xml version="1.0" encoding="utf-8"?><svg id="Layer_1" data-name="Layer 1" xmlns="http://www.w3.org/2000/svg" viewBox="0 0 140 60"><title>Pixar</title><g id="new_Pixar" data-name="new Pixar"><path d="M121.11,28.92c2.28-1.4,4-3.81,4-5.66a3.83,3.83,0,0,0-2.75-3.68c-2-.78-5.2-.85-8.36-.85l-6.74,0,.19,1.35c.61.06,2.43.22,3.11.32.08,1.21.11,5.73.11,6.88v1.78c0,2.85,0,7.92-.12,9.32-.87.17-2.69.33-3.06.36l-.26,1.39C109,40,110.92,40,112.74,40s3.58,0,5.35.17l-.26-1.39c-.76-.07-2.39-.25-3-.36-.08-1.53-.13-5.89-.13-7.81l2.25-.15c1.14,1.36,8.33,9.49,10.38,10.5l2.12-.34C126.44,37.62,122.09,30.64,121.11,28.92Zm-3.39-.5a9.47,9.47,0,0,1-3,.52c0-2,0-7,.12-8.63,4.43.11,6,2.08,6,3.76a4.57,4.57,0,0,1-3.08,4.35Z" fill="#fff"/><path d="M101.59,38.79c-.84-.12-1.89-.26-2.65-.42a97.31,97.31,0,0,1-3.82-9.52c-.86-2.41-2.38-6.79-2.91-8.52.49-.11,1.37-.23,2.08-.31l.2-1.37c-1.79.13-3.57.12-5.38.12-1.41,0-2.84-.05-4.25-.16L84.92,20c.52.07,1.6.21,2.16.33-.83,2.23-5.92,15.75-7.09,18a25.67,25.67,0,0,1-2.59.38l-.2,1.39c1.2-.11,2.42-.15,3.64-.15,1.61,0,3.44.08,5.06.18l-.26-1.38c-.73-.08-1.76-.21-2.4-.35a77.18,77.18,0,0,1,1.93-7.53c1.26-.14,4.88-.29,6.22-.31.49,1.11,2.1,5.91,2.77,7.89-.86.16-2,.27-2.76.33l-.33,1.39C92.81,40,94.58,40,96.31,40a34.55,34.55,0,0,1,5.47.25Zm-15.75-10c.26-.76.76-2.11,1.29-3.53v0c.44-1.16.92-2.46,1.31-3.55.38,1.16,1,2.85,1.48,4.38l0,0,1,2.82Z" fill="#fff"/><path d="M34,40.15l.27-1.39c.4,0,2.25-.24,3.05-.37.1-1.61.12-6.48.12-9.16V27.51c0-.71,0-5.58-.12-7.08-.77-.13-2.58-.34-3-.39l-.34-1.4a57.5,57.5,0,0,0,6.15.18A41.91,41.91,0,0,0,45,18.63L44.62,20c-.43,0-2.26.27-3,.4-.07.87-.11,3.29-.11,7.21v1.81c0,4.66,0,8,.11,8.93.81.15,2.53.32,3,.37L45,40.15C43,40,40.83,40,38.84,40,37.21,40,35.57,40.05,34,40.15Z" fill="#fff"/><path d="M65,18.66c1.45.13,2.91.18,4.37.18,1.11,0,2.22-.07,3.34-.16L72.53,20c-.32.08-1.67.39-2,.46-.56.37-4.58,5.17-6.25,7.24,3.15,4.43,6.16,8.85,9.39,13.21l-2,.47a43.13,43.13,0,0,1-6.32-6.28h0c-1.55-1.82-2.87-3.49-3.62-4.39a79.31,79.31,0,0,0-4.81,7.74c.62.11,1.76.28,2.19.33l.19,1.34c-.66,0-3-.12-4.69-.12-1.29,0-2.53.06-3.82.17l.46-1.39a9.92,9.92,0,0,0,2-.41c.93-.56,5.68-7,7.32-9.19-.81-1-1.81-2.4-2.78-3.72-1.51-2-3.06-4.16-3.86-5-.39-.12-1.57-.34-2-.42l-.2-1.39a28.49,28.49,0,0,0,4.79.2c1.76,0,3.53-.06,5.28-.15l-.39,1.38a21.76,21.76,0,0,0-2.19.31c.8,1.29,3,4.57,4,5.8.91-1.24,3-4.26,3.91-5.81-.5-.12-1.53-.27-1.83-.32l-.26-1.37Z" fill="#fff"/><path d="M28.47,23.51c0-.8-.3-2.78-3.1-3.94-1.46-.61-3.88-.87-7.85-.87H13.68l-3.08,0,.19,1.34c.62.06,2.44.21,3.1.35.1,1.45.12,6.25.12,6.94v1.17c0,2.18,0,8.1-.12,9.89-.61.09-2.45.32-3.06.39l-.26,1.37C12.44,40,14.35,40,16.22,40s4,0,5.93.15l-.33-1.37c-.76-.08-2.78-.27-3.65-.39-.09-1.5-.12-7.15-.12-9.73V27.46c0-2.56,0-5.89.11-7.11a11.14,11.14,0,0,1,3.93.59,3.88,3.88,0,0,1,2.15,3.63c0,3.5-3,4.86-5,5.36l-.17,1.5c1.24-.19,5.16-.92,7.28-3A6.75,6.75,0,0,0,28.47,23.51Z" fill="#fff"/></g></svg>