<?xml version="1.0" encoding="utf-8"?><svg id="Layer_1" data-name="Layer 1" xmlns="http://www.w3.org/2000/svg" viewBox="0 0 140 60"><title>Star Wars</title><path d="M63.19,42h-2.8c-.1,0-.17-.11-.17-.21S61.71,37,61.71,37c0-.18.06-.18.08-.18h0s0,0,.08.18c0,0,1.49,4.71,1.49,4.75s-.08.21-.17.21M67,31.21a.26.26,0,0,0-.22-.17H56.48a.26.26,0,0,0-.22.17s-5.67,18.4-5.67,18.43a.17.17,0,0,0,.17.17h6.78a.16.16,0,0,0,.11-.13l.79-2.48a.21.21,0,0,1,.15-.11h6.26a.19.19,0,0,1,.16.11l.81,2.48a.16.16,0,0,0,.11.13H72.6a.17.17,0,0,0,.17-.16h0S67,31.21,67,31.21m19.68,7.52H82.51a.16.16,0,0,1-.1-.16V36.51a.16.16,0,0,1,.11-.16h3.78a1.23,1.23,0,0,1,1.33,1.23,1.15,1.15,0,0,1-1,1.15m19.78-1.6h9.34V31h-12a7.14,7.14,0,0,0-3.61,1.24,5.53,5.53,0,0,0-2.22,4.29,6.65,6.65,0,0,0,1.29,3.72c.65.81,2.31,2.5,2.31,2.5a.2.2,0,0,1,.06.15.23.23,0,0,1-.23.22H92.08c-1.13,0-1.2-.45-1.2-.51s.14-.18.14-.18a12.15,12.15,0,0,0,1.28-.87,5.38,5.38,0,0,0,2-4.4,5.58,5.58,0,0,0-2-4.49,7.35,7.35,0,0,0-4.25-1.66H74.85V49.7a.12.12,0,0,0,.12.11h7.35V44.58c0-.1.14,0,.14,0l3.83,3.82a5.93,5.93,0,0,0,3.62,1.41h14.48A5.69,5.69,0,0,0,110.23,44a5.75,5.75,0,0,0-1.51-4c-.41-.49-2-2.19-2.36-2.54a.16.16,0,0,1-.06-.13.17.17,0,0,1,.12-.18M47.48,49.81a.12.12,0,0,0,.11-.09s5.77-18.55,5.77-18.57a.11.11,0,0,0-.08-.11H46.17s-.06,0-.07.07l-1.47,4.82s0,.07-.07.07a.08.08,0,0,1-.07-.07L43,31.11s0-.07-.07-.07H35a.08.08,0,0,0-.05.05l-1.38,4.84s0,.07-.07.07a.06.06,0,0,1-.06-.06L32,31.1a.06.06,0,0,0,0-.06H24.35a.11.11,0,0,0-.11.11v0L30.1,49.72a.11.11,0,0,0,.1.09h6.3a.16.16,0,0,0,.09-.09l2.19-6.9h0s0-.07.06-.07.06,0,.07.07l2.14,6.93a.1.1,0,0,0,.09.06h6.34M42,10.19a7.25,7.25,0,0,0-3.66,1.24,5.49,5.49,0,0,0-2.25,4.29,6.62,6.62,0,0,0,1.3,3.72C38,20.25,39.71,22,39.71,22a.2.2,0,0,1,.06.15.22.22,0,0,1-.23.22H24.24V29H42.62a5.94,5.94,0,0,0,4.28-1.71A6,6,0,0,0,47,19.12c-.41-.49-2-2.17-2.39-2.52a.2.2,0,0,1-.06-.14.19.19,0,0,1,.12-.18h8.86V29h6.81V16.31h8.26V10.19Zm59.21,7.69H97.07a.16.16,0,0,1-.11-.16V15.66a.16.16,0,0,1,.11-.16h3.78a1.23,1.23,0,0,1,1.33,1.23A1.16,1.16,0,0,1,101.19,17.88Zm5.44,4.43c-1.12,0-1.2-.45-1.2-.51s.14-.18.14-.18a12.15,12.15,0,0,0,1.28-.87,5.38,5.38,0,0,0,2.05-4.4,5.59,5.59,0,0,0-2-4.49,7.43,7.43,0,0,0-4.25-1.67H89.41V28.85a.1.1,0,0,0,.11.11h7.35V23.73c0-.1.14,0,.14,0l3.83,3.81A5.88,5.88,0,0,0,104.46,29h11.3V22.31ZM78.44,21.14H75.65a.19.19,0,0,1-.17-.21S77,16.18,77,16.18C77,16,77,16,77,16h0s0,0,.07.18c0,0,1.49,4.71,1.49,4.75s-.07.21-.17.21m3.77-10.78a.25.25,0,0,0-.22-.17H71.72a.25.25,0,0,0-.21.17s-5.67,18.4-5.67,18.43A.18.18,0,0,0,66,29H72.8a.17.17,0,0,0,.1-.13l.79-2.48a.21.21,0,0,1,.16-.11h6.26a.18.18,0,0,1,.15.11l.81,2.48a.21.21,0,0,0,.11.13h6.68A.17.17,0,0,0,88,28.8h0s-5.82-18.43-5.82-18.43" fill="#fff" fill-rule="evenodd"/></svg>